<?xml version="1.0" standalone="no"?>
<!DOCTYPE svg PUBLIC "-//W3C//DTD SVG 20010904//EN"
 "http://www.w3.org/TR/2001/REC-SVG-20010904/DTD/svg10.dtd">
<svg version="1.0" xmlns="http://www.w3.org/2000/svg"
 width="360.000000pt" height="360.000000pt" viewBox="0 0 360.000000 360.000000"
 preserveAspectRatio="xMidYMid meet">
<metadata>
Created by potrace 1.16, written by Peter Selinger 2001-2019
</metadata>
<g transform="translate(0.000000,360.000000) scale(0.100000,-0.100000)"
fill="#000000" stroke="none">
<path d="M1665 3389 c-324 -60 -564 -300 -631 -629 -20 -98 -15 -258 10 -355
39 -147 150 -312 275 -406 80 -61 203 -123 291 -146 94 -25 280 -22 381 5 291
79 514 308 575 592 31 148 11 346 -51 484 -103 232 -320 403 -572 452 -83 16
-201 17 -278 3z"/>
<path d="M1019 1812 c-75 -37 -177 -98 -227 -135 -101 -76 -242 -218 -301
-305 -119 -176 -191 -397 -191 -587 0 -247 156 -467 391 -553 l74 -27 1002 -3
c1103 -3 1078 -4 1206 58 74 37 138 85 134 103 -1 7 4 11 11 9 39 -7 143 175
168 295 19 87 15 201 -10 319 -75 351 -343 662 -729 844 -58 27 -112 50 -120
50 -8 0 -32 -14 -53 -31 -84 -67 -206 -124 -339 -161 -94 -25 -273 -34 -372
-18 -159 25 -348 103 -443 184 -18 14 -39 26 -49 26 -9 0 -78 -31 -152 -68z"/>
</g>
</svg>
